<?xml version="1.0" standalone="no"?>
<!DOCTYPE svg PUBLIC "-//W3C//DTD SVG 20010904//EN"
 "http://www.w3.org/TR/2001/REC-SVG-20010904/DTD/svg10.dtd">
<svg version="1.0" xmlns="http://www.w3.org/2000/svg"
 width="366.000000pt" height="366.000000pt" viewBox="0 0 366.000000 366.000000"
 preserveAspectRatio="xMidYMid meet">
<metadata>
Created by potrace 1.11, written by Peter Selinger 2001-2013
</metadata>
<g transform="translate(0.000000,366.000000) scale(0.100000,-0.100000)"
fill="#000000" stroke="none">
<path d="M1665 3604 c-145 -20 -193 -29 -280 -51 -205 -53 -411 -148 -585
-271 -123 -86 -336 -299 -422 -422 -155 -220 -260 -478 -310 -760 -17 -99 -17
-441 0 -540 50 -282 155 -540 310 -760 86 -123 299 -336 422 -422 220 -155
478 -260 760 -310 99 -17 441 -17 540 0 282 50 540 155 760 310 123 86 336
299 422 422 123 174 218 381 271 585 44 171 52 240 52 445 0 205 -8 274 -52
445 -53 204 -148 411 -271 585 -86 123 -299 336 -422 422 -215 151 -463 255
-731 304 -80 15 -399 27 -464 18z m435 -78 c615 -104 1112 -508 1335 -1086 75
-194 109 -383 109 -610 0 -176 -10 -265 -51 -425 -150 -602 -636 -1088 -1238
-1238 -160 -41 -249 -51 -425 -51 -176 0 -265 10 -425 51 -602 150 -1088 636
-1238 1238 -41 160 -51 249 -51 425 0 176 10 265 51 425 120 479 452 890 903
1115 151 76 350 137 515 159 44 6 94 13 110 15 57 8 320 -3 405 -18z"/>
<path d="M1758 3203 c2 -82 8 -164 13 -183 6 -24 7 -5 4 65 -3 55 -5 137 -5
183 0 45 -3 82 -8 82 -4 0 -6 -66 -4 -147z"/>
<path d="M1825 3187 c-4 -90 -5 -172 -2 -182 2 -11 5 8 6 41 0 34 4 75 7 92 6
30 6 30 60 25 37 -4 54 -2 54 6 0 7 -21 11 -55 11 l-56 0 3 78 3 77 58 -3 c33
-1 57 2 57 8 0 6 -28 10 -64 10 l-64 0 -7 -163z"/>
<path d="M1660 3329 c0 -8 7 -68 15 -133 9 -65 14 -123 12 -129 -2 -6 -20 21
-42 59 -76 138 -117 205 -121 201 -5 -5 33 -320 42 -346 18 -54 6 86 -21 254
-4 29 -4 29 11 10 8 -11 45 -73 81 -137 65 -117 87 -143 77 -90 -2 15 -13 92
-24 170 -10 79 -21 146 -24 150 -3 3 -6 -1 -6 -9z"/>
<path d="M2069 3320 c-22 -13 -35 -50 -54 -149 -26 -143 -19 -184 35 -196 43
-9 70 3 85 38 19 48 49 239 42 268 -10 39 -70 61 -108 39z m81 -30 c11 -11 20
-24 20 -29 0 -35 -44 -230 -56 -248 -27 -42 -104 -19 -104 31 0 49 42 232 57
248 21 24 58 23 83 -2z"/>
<path d="M1412 3142 c2 -89 0 -161 -4 -160 -3 2 -43 59 -88 128 -95 143 -88
135 -96 128 -7 -8 97 -338 107 -338 8 0 -3 42 -45 170 -14 41 -23 77 -20 79 2
2 5 2 7 0 2 -2 34 -52 72 -111 39 -59 74 -108 79 -108 5 0 6 60 2 143 -4 87
-4 138 2 132 5 -5 26 -63 46 -127 20 -65 40 -118 45 -118 9 0 -91 325 -104
338 -3 3 -5 -67 -3 -156z"/>
<path d="M2283 3250 c-22 -25 -92 -216 -92 -253 -1 -35 39 -77 72 -77 44 0 66
31 107 150 22 63 40 123 40 133 0 10 -11 29 -25 42 -30 31 -78 33 -102 5z m72
-2 c48 -22 45 -58 -17 -219 -24 -64 -35 -80 -55 -85 -32 -8 -69 9 -76 35 -7
29 68 242 94 264 25 20 22 20 54 5z"/>
<path d="M2432 3048 c-46 -88 -82 -161 -80 -163 17 -15 73 -35 97 -35 37 0 62
31 120 147 60 120 55 156 -24 196 l-30 15 -83 -160z m129 115 c48 -29 46 -50
-16 -173 -65 -125 -83 -142 -134 -116 -17 9 -31 21 -31 27 0 19 136 279 147
279 3 0 18 -8 34 -17z"/>
<path d="M1046 3149 c-38 -30 -33 -61 25 -174 61 -119 78 -138 118 -138 42 0
71 28 71 70 0 36 -78 203 -113 241 -26 28 -66 28 -101 1z m84 -9 c26 -26 120
-214 120 -240 0 -26 -43 -54 -73 -46 -17 4 -38 32 -75 98 -66 121 -75 144 -61
169 9 18 39 37 62 38 4 1 16 -8 27 -19z"/>
<path d="M2314 2553 c-142 -172 -254 -320 -272 -362 -12 -31 -12 -41 3 -92
l17 -57 -113 -166 c-63 -91 -117 -164 -121 -163 -5 1 -59 76 -122 167 l-113
164 15 36 c35 81 8 218 -64 325 -90 136 -299 267 -384 240 -50 -16 -63 -113
-30 -239 29 -113 73 -198 142 -271 73 -79 146 -117 226 -121 l57 -2 122 -168
c67 -93 122 -172 122 -176 1 -10 -204 -283 -252 -335 -23 -25 -92 -90 -153
-144 -134 -117 -144 -136 -118 -216 l19 -58 58 -3 c96 -5 111 13 187 214 22
60 55 134 72 164 43 77 209 330 217 330 8 0 170 -249 215 -330 19 -36 53 -113
75 -171 68 -185 89 -209 177 -209 65 0 83 20 90 102 5 49 3 56 -28 90 -18 20
-73 71 -122 112 -102 87 -142 131 -279 314 -80 106 -98 136 -91 151 5 10 61
91 124 180 l115 161 47 0 c67 0 93 13 132 67 76 105 293 469 285 478 -3 2 -74
-92 -158 -210 -84 -118 -157 -218 -163 -221 -5 -3 -14 -2 -20 4 -7 7 34 75
132 219 79 114 152 222 163 238 l20 30 -20 -20 c-12 -11 -87 -112 -168 -225
-90 -126 -153 -205 -163 -205 -9 0 -16 6 -14 14 2 8 69 111 151 230 169 248
168 247 153 237 -6 -4 -84 -108 -173 -232 -145 -202 -186 -248 -183 -202 1 8
66 109 146 224 161 234 161 234 154 234 -3 0 -54 -57 -112 -127z"/>
<path d="M647 1058 c-59 -39 -105 -73 -103 -76 3 -2 28 10 56 28 l52 33 24
-26 c62 -68 161 16 108 91 -8 12 -18 22 -22 22 -4 0 -55 -32 -115 -72z m138
18 c8 -25 6 -31 -18 -52 -16 -13 -34 -24 -42 -24 -14 0 -55 38 -55 51 0 11 74
58 90 56 8 -1 19 -15 25 -31z"/>
<path d="M2891 1122 c-1 -7 10 -35 24 -62 14 -27 25 -52 25 -56 0 -4 -33 -4
-72 -1 -45 3 -61 2 -43 -3 17 -4 50 -8 75 -9 29 -1 58 -9 80 -24 75 -50 90
-59 90 -51 0 5 -24 24 -54 43 -44 29 -60 47 -89 105 -20 39 -36 65 -36 58z"/>
<path d="M732 943 c-57 -47 -100 -88 -97 -91 3 -3 18 6 33 19 57 52 61 53 82
34 29 -27 25 -52 -17 -90 -21 -19 -33 -35 -27 -35 16 0 74 64 74 83 0 11 8 17
24 17 13 0 35 9 50 21 33 26 34 64 3 101 l-22 27 -103 -86z m138 9 c0 -23 -40
-62 -63 -62 -23 0 -57 27 -56 44 0 6 19 26 42 44 l41 34 18 -22 c10 -12 18
-29 18 -38z"/>
<path d="M1578 1003 c6 -2 18 -2 25 0 6 3 1 5 -13 5 -14 0 -19 -2 -12 -5z"/>
<path d="M1642 998 c-21 -21 -13 -46 21 -68 l32 -22 -27 24 c-32 27 -36 52
-10 67 9 6 12 11 7 11 -6 0 -16 -5 -23 -12z"/>
<path d="M1718 1003 c12 -2 30 -2 40 0 9 3 -1 5 -23 4 -22 0 -30 -2 -17 -4z"/>
<path d="M1862 998 c-7 -7 -12 -16 -12 -22 0 -5 6 -2 13 9 9 11 19 15 27 10 9
-5 11 -4 6 3 -9 15 -19 15 -34 0z"/>
<path d="M1931 996 c-7 -9 -11 -35 -8 -68 l3 -53 2 57 c2 58 16 82 34 57 8
-12 9 -12 6 0 -6 21 -23 24 -37 7z"/>
<path d="M2066 983 c-6 -14 -5 -15 5 -6 7 7 10 15 7 18 -3 3 -9 -2 -12 -12z"/>
<path d="M2013 925 c0 -33 2 -45 4 -27 2 18 2 45 0 60 -2 15 -4 0 -4 -33z"/>
<path d="M2750 944 c-17 -15 -30 -30 -28 -34 4 -12 188 -170 196 -170 4 1 -12
18 -35 38 -48 42 -51 52 -25 75 26 24 44 21 87 -13 51 -41 59 -37 13 5 -22 21
-48 35 -63 35 -18 0 -25 5 -25 19 0 21 -53 71 -75 71 -7 0 -27 -12 -45 -26z
m81 -5 c33 -23 38 -56 12 -88 l-18 -21 -45 39 -45 39 24 26 c29 31 35 32 72 5z"/>
<path d="M1872 926 c-31 -45 -29 -66 6 -65 23 2 24 2 5 6 -29 5 -29 23 -2 57
12 15 20 29 17 31 -2 2 -13 -11 -26 -29z"/>
<path d="M2040 939 c-7 -11 -10 -23 -7 -25 2 -2 9 7 15 21 14 30 7 33 -8 4z"/>
<path d="M1583 933 c9 -2 23 -2 30 0 6 3 -1 5 -18 5 -16 0 -22 -2 -12 -5z"/>
<path d="M832 827 c-50 -51 -92 -95 -92 -99 0 -3 17 -18 38 -33 l37 -27 -34
32 -33 32 43 44 43 44 36 -32 35 -33 -32 35 -33 34 42 43 42 43 36 -33 35 -32
-34 38 c-19 20 -35 37 -36 37 0 0 -42 -42 -93 -93z"/>
<path d="M1630 893 c0 -6 7 -16 16 -23 12 -11 18 -10 32 5 16 18 16 18 -2 5
-16 -13 -20 -12 -32 5 -8 10 -14 14 -14 8z"/>
<path d="M1952 874 c-7 -8 -8 -14 -3 -14 10 0 25 19 20 25 -2 1 -10 -3 -17
-11z"/>
<path d="M2671 856 l-33 -34 90 -94 89 -94 32 26 c17 15 31 30 31 35 0 5 -14
-4 -30 -20 l-30 -29 -42 42 -42 42 29 32 30 33 -32 -29 -32 -29 -40 44 -39 44
31 33 c17 17 29 32 26 32 -3 0 -20 -15 -38 -34z"/>
<path d="M1578 863 c6 -2 18 -2 25 0 6 3 1 5 -13 5 -14 0 -19 -2 -12 -5z"/>
<path d="M922 745 c-40 -52 -75 -102 -79 -112 -5 -15 24 20 114 136 2 2 5 2 7
0 2 -2 -11 -42 -30 -89 -19 -46 -33 -88 -32 -92 2 -4 36 17 77 47 41 30 77 53
79 50 2 -2 -21 -35 -52 -74 -31 -39 -53 -71 -48 -71 5 0 46 47 91 105 44 58
77 105 72 105 -5 0 -49 -29 -97 -65 -49 -36 -92 -65 -95 -65 -7 0 62 187 77
211 3 5 2 9 -3 9 -4 -1 -41 -43 -81 -95z"/>
<path d="M2620 803 c0 -5 18 -51 40 -103 23 -51 39 -95 36 -97 -2 -3 -43 28
-91 67 -48 39 -90 68 -93 65 -3 -3 -3 -6 -1 -8 2 -2 50 -41 107 -86 57 -46
105 -81 107 -79 4 4 -92 238 -101 247 -2 2 -4 0 -4 -6z"/>
<path d="M1081 619 c-40 -61 -70 -113 -67 -116 2 -3 20 20 40 51 20 31 52 81
72 112 20 31 34 58 31 60 -2 3 -37 -45 -76 -107z"/>
<path d="M2504 681 c92 -145 126 -194 126 -184 0 15 -132 223 -143 223 -4 0 4
-18 17 -39z"/>
<path d="M1158 668 c-64 -109 -89 -168 -83 -188 8 -25 42 -40 69 -31 19 7 130
196 124 212 -2 4 -28 -38 -59 -94 -51 -93 -58 -102 -85 -102 -47 0 -43 37 16
145 50 94 64 139 18 58z"/>
<path d="M2380 655 c0 -2 28 -56 63 -118 l62 -115 49 25 c26 13 46 27 43 29
-3 3 -23 -4 -45 -15 l-40 -21 -62 110 c-54 97 -70 122 -70 105z"/>
<path d="M1247 524 c-26 -70 -46 -128 -43 -131 2 -2 18 33 36 79 39 101 40
103 51 87 6 -9 9 5 9 39 0 28 -1 52 -2 52 -2 0 -25 -57 -51 -126z"/>
<path d="M2313 630 l-42 -19 51 -118 c29 -65 53 -120 55 -122 1 -2 24 4 50 14
26 10 42 20 36 22 -6 2 -25 -3 -41 -11 -16 -8 -33 -12 -36 -8 -9 8 -47 94 -44
97 2 1 18 10 36 19 19 10 32 20 29 22 -3 3 -19 -2 -36 -10 -16 -9 -32 -16 -34
-16 -3 0 -14 23 -27 51 -23 56 -21 62 28 75 12 3 22 10 22 15 0 11 2 12 -47
-11z"/>
<path d="M1369 508 c-81 -109 -78 -106 -89 -88 -7 11 -10 7 -10 -18 0 -18 4
-31 9 -28 5 3 33 37 62 76 29 38 55 68 57 66 2 -2 -11 -41 -28 -86 -18 -45
-30 -83 -27 -86 2 -2 25 50 51 117 26 67 45 123 43 126 -3 2 -33 -33 -68 -79z"/>
<path d="M2171 579 c-15 -6 -22 -15 -19 -27 3 -9 20 -66 39 -125 l34 -108 29
6 c64 12 71 48 31 166 -33 96 -54 112 -114 88z m59 -9 c21 -11 73 -157 68
-192 -3 -24 -48 -52 -61 -39 -5 5 -24 57 -42 115 l-34 107 22 9 c29 11 26 11
47 0z"/>
<path d="M1522 435 c-13 -70 -21 -129 -19 -131 2 -3 10 23 16 56 l12 61 47 -5
47 -6 -45 13 c-25 7 -44 17 -43 22 1 6 5 31 8 57 7 46 7 47 38 42 18 -3 38 -7
45 -10 6 -2 12 1 12 6 0 6 -8 10 -19 10 -10 0 -31 3 -47 6 l-29 6 -23 -127z"/>
<path d="M1283 490 c0 -30 2 -43 4 -27 2 15 2 39 0 55 -2 15 -4 2 -4 -28z"/>
<path d="M1682 524 c-14 -10 -22 -25 -21 -42 1 -22 2 -23 6 -6 2 12 13 30 23
39 18 16 21 16 44 1 17 -11 26 -27 29 -53 l4 -38 1 38 c1 25 -4 43 -18 57 -24
24 -38 25 -68 4z"/>
<path d="M1941 518 c0 -13 4 -43 9 -68 8 -40 9 -38 4 18 l-5 62 30 0 c45 0 58
-21 71 -115 14 -97 11 -111 -26 -126 -35 -13 -43 -4 -51 60 -3 28 -8 49 -10
47 -3 -3 -2 -33 2 -67 l7 -61 36 6 c63 10 67 21 52 136 -7 59 -18 107 -27 115
-8 8 -32 15 -54 15 -34 0 -39 -3 -38 -22z"/>
<path d="M1816 514 c-13 -12 -16 -35 -14 -107 l2 -92 5 93 c6 94 14 111 52
112 28 0 39 -24 41 -89 l2 -66 3 62 c2 35 -1 72 -7 83 -13 24 -62 27 -84 4z"/>
<path d="M1653 395 c0 -33 2 -45 4 -27 2 18 2 45 0 60 -2 15 -4 0 -4 -33z"/>
<path d="M1752 375 c-3 -87 -58 -127 -89 -65 -11 22 -13 23 -13 4 0 -28 19
-44 52 -44 41 0 60 35 55 102 l-3 53 -2 -50z"/>
<path d="M1900 305 c0 -22 -36 -38 -59 -25 -11 5 -22 15 -24 22 -3 8 -6 6 -6
-5 -1 -9 10 -23 24 -29 33 -15 75 3 75 32 0 11 -2 20 -5 20 -3 0 -5 -7 -5 -15z"/>
</g>
</svg>
